<?xml version="1.0" standalone="no"?>
<!DOCTYPE svg PUBLIC "-//W3C//DTD SVG 20010904//EN"
 "http://www.w3.org/TR/2001/REC-SVG-20010904/DTD/svg10.dtd">
<svg version="1.0" xmlns="http://www.w3.org/2000/svg"
 width="1400.000000pt" height="910.000000pt" viewBox="0 0 1400.000000 910.000000"
 preserveAspectRatio="xMidYMid meet">

<g transform="translate(0.000000,910.000000) scale(0.100000,-0.100000)"
fill="#000000" stroke="none">
<path d="M8523 7091 c-261 -4 -425 -10 -431 -16 -5 -5 -215 -806 -467 -1780
-252 -973 -460 -1774 -463 -1779 -3 -5 -202 794 -442 1775 l-437 1784 -590 3
-591 2 -17 -67 c-35 -140 -817 -3332 -837 -3417 -13 -55 -23 -84 -28 -75 -4 8
-214 812 -466 1787 l-459 1772 -647 0 -647 0 15 -47 c8 -27 380 -1202 828
-2613 l813 -2565 567 -3 c311 -1 566 0 566 3 0 10 881 3352 888 3369 5 13 80
-256 242 -865 128 -486 328 -1244 445 -1684 l211 -800 567 -3 566 -2 30 97
c17 54 390 1231 829 2616 l799 2517 -211 -2 c-116 -1 -401 -4 -633 -7z"/>
<path d="M11114 3516 c-474 -123 -739 -607 -603 -1105 42 -155 149 -321 272
-421 77 -64 217 -133 322 -162 117 -31 347 -32 460 -1 244 67 428 212 534 425
77 153 94 230 95 418 1 132 -3 168 -22 238 -88 325 -324 551 -644 616 -118 24
-301 21 -414 -8z"/>
</g>
</svg>
