<svg width="40" height="40" viewBox="0 0 1000 1000" fill="none" xmlns="http://www.w3.org/2000/svg">
                                    <circle cx="500" cy="500" r="500" fill="black"></circle>
                                    <mask id="mask0" style="mask-type:alpha" maskUnits="userSpaceOnUse" x="0" y="0" width="1000" height="1000">
                                    <circle cx="500" cy="500" r="500" fill="#C4C4C4"></circle>
                                    </mask>
                                    <g mask="url(#mask0)">
                                    <rect x="234.5" y="310.5" width="517" height="756" fill="black" stroke="white" stroke-width="15"></rect>
                                    <rect x="284.5" y="364.5" width="517" height="756" fill="black" stroke="white" stroke-width="15"></rect>
                                    <rect x="336.307" y="419.229" width="517" height="756" fill="#FFFAFA" stroke="white" stroke-width="15"></rect>
                                    </g>
                                    <path d="M596.012 734.975C606.132 734.975 615.825 733.55 625.091 730.699C634.499 727.705 642.695 722.788 649.68 715.945C656.807 709.103 662.438 699.909 666.572 688.363C670.848 676.674 672.986 662.206 672.986 644.958C672.986 619.157 666.643 600.84 653.956 590.007C641.27 579.031 622.026 573.543 596.225 573.543C586.39 573.543 578.193 573.97 571.636 574.825C565.222 575.538 559.449 575.966 554.317 576.108V733.479C561.302 733.906 567.859 734.263 573.988 734.548C580.26 734.833 587.601 734.975 596.012 734.975ZM616.966 865.191V887H461.306V865.191L495.945 858.99C499.366 858.42 502.003 856.994 503.856 854.713C505.709 852.433 506.636 849.653 506.636 846.375V594.497C506.636 591.788 505.78 589.223 504.07 586.799C502.359 584.376 500.079 582.879 497.228 582.309L461.306 575.253V553.016H530.797C537.354 553.016 543.27 552.873 548.544 552.588C553.961 552.303 559.377 551.947 564.794 551.519C570.353 551.092 576.412 550.735 582.969 550.45C589.668 550.165 597.651 550.023 606.916 550.023C628.868 550.023 647.328 552.161 662.295 556.437C677.262 560.713 689.165 566.843 698.003 574.825C706.983 582.808 713.327 592.715 717.033 604.546C720.881 616.377 722.806 629.705 722.806 644.53C722.806 662.491 719.67 678.67 713.398 693.067C707.126 707.321 698.359 719.367 687.098 729.202C675.98 738.895 662.58 746.308 646.9 751.439C631.363 756.571 614.4 759.137 596.012 759.137C589.027 759.137 582.042 758.994 575.057 758.709C568.215 758.281 561.302 757.925 554.317 757.64V846.375C554.317 849.511 555.244 852.219 557.097 854.5C559.092 856.638 561.658 857.849 564.794 858.135L616.966 865.191Z" fill="black"></path>
                                    </svg>