<svg width="200" height="200" viewBox="0 0 200 200" fill="none" xmlns="http://www.w3.org/2000/svg">
<g clip-path="url(#clip0_381_981)">
<path d="M7.74459 138.546C13.1907 94.0065 35.8919 79.7204 56.2187 67.062C76.9748 54.1308 94.9274 42.8048 92.7677 0.250732C83.2998 0.927378 73.9776 2.95714 65.0855 6.27814C65.9887 40.0504 49.9901 50.0663 34.4655 59.7379C18.069 69.9505 2.58015 79.5997 1.60986 117.678C2.90656 124.926 4.96786 131.924 7.74459 138.546Z" fill="black"/>
<path d="M29.7345 52.1455C44.2039 43.1268 55.9055 35.749 56.1693 10.1191C29.8329 23.0279 9.98001 47.1778 2.875 76.2775C10.1678 64.3434 20.3044 58.0164 29.7345 52.1455ZM32.3771 173.592C35.9006 126.124 56.7282 109.558 76.9254 93.5191C98.8664 76.0987 119.6 59.5903 118.433 1.67713C112.91 0.649894 107.31 0.0889955 101.692 0.000366211C104.008 47.6697 82.1658 61.4325 60.9447 74.6499C39.4464 88.0417 17.2594 101.943 15.5513 153.44C20.2563 160.863 25.913 167.638 32.3771 173.592ZM139.471 121.403C159.512 105.319 178.417 90.0091 177.406 36.6388C172.003 30.0626 165.789 24.1971 158.912 19.1826C158.631 77.4892 135.965 95.7146 113.998 113.341C93.3219 129.934 73.8044 145.633 72.3735 196.128C80.6188 198.498 89.2887 199.844 98.2494 200.005C100.606 152.729 120.329 136.771 139.471 121.403ZM173.06 142.262C158.707 151.008 146.258 158.676 144.81 189.43C172.331 175.6 192.618 149.452 198.395 118.246C191.947 130.739 182.168 136.713 173.06 142.262Z" fill="black"/>
<path d="M168.41 134.629C183.782 125.257 198.31 116.413 196.539 75.2894L197 75.2715C194.658 66.1136 191.021 57.3371 186.197 49.2078C184.082 96.9174 164.31 112.943 145.078 128.378C126.777 143.053 109.513 157.035 107.228 199.754C116.983 199.064 126.584 196.94 135.72 193.45C136.265 154.218 153.337 143.813 168.41 134.629ZM108.409 106.365C130.385 88.7348 151.15 72.0342 149.934 13.334C142.853 9.24137 135.295 6.0366 127.43 3.79211C128.069 64.3345 104.907 82.7208 82.488 100.521C62.0717 116.73 42.8045 132.129 40.9668 180.657C47.9353 185.776 55.5391 189.968 63.5875 193.128C65.7963 140.701 87.4288 123.2 108.409 106.365Z" fill="black"/>
</g>
<defs>
<clipPath id="clip0_381_981">
<rect width="200" height="200" fill="white" transform="translate(0 0.000366211)"/>
</clipPath>
</defs>
</svg>
