<svg width="173" height="62" viewBox="0 0 173 62" fill="none" xmlns="http://www.w3.org/2000/svg">
<path d="M9.208 45C8.61067 45 8.152 44.744 7.832 44.232C7.512 43.72 7.48 43.176 7.736 42.6L16.728 21.128C17.048 20.3813 17.5707 20.008 18.296 20.008C19.064 20.008 19.5867 20.3813 19.864 21.128L28.888 42.664C29.1227 43.2613 29.08 43.8053 28.76 44.296C28.4613 44.7653 28.0027 45 27.384 45C27.064 45 26.7547 44.9147 26.456 44.744C26.1787 44.552 25.976 44.296 25.848 43.976L24.056 39.496H12.568L10.744 43.976C10.5947 44.3173 10.3707 44.5733 10.072 44.744C9.79467 44.9147 9.50667 45 9.208 45ZM13.688 36.744H22.936L18.36 25.352L13.688 36.744ZM34.364 45C33.8947 45 33.5 44.84 33.18 44.52C32.86 44.2 32.7 43.8053 32.7 43.336V21.672C32.7 21.1813 32.86 20.7867 33.18 20.488C33.5 20.168 33.8947 20.008 34.364 20.008H40.764C42.364 20.008 43.7827 20.36 45.02 21.064C46.2573 21.768 47.2173 22.7493 47.9 24.008C48.604 25.2453 48.956 26.6747 48.956 28.296C48.956 29.8533 48.604 31.24 47.9 32.456C47.2173 33.672 46.2573 34.6213 45.02 35.304C43.7827 35.9867 42.364 36.328 40.764 36.328H36.028V43.336C36.028 43.8053 35.868 44.2 35.548 44.52C35.2493 44.84 34.8547 45 34.364 45ZM36.028 33.256H40.764C42.2147 33.256 43.4093 32.7973 44.348 31.88C45.2867 30.9413 45.756 29.7467 45.756 28.296C45.756 27.272 45.5427 26.376 45.116 25.608C44.6893 24.8187 44.1027 24.2 43.356 23.752C42.6093 23.304 41.7453 23.08 40.764 23.08H36.028V33.256ZM54.3015 45C53.8322 45 53.4375 44.84 53.1175 44.52C52.7975 44.2 52.6375 43.8053 52.6375 43.336V21.672C52.6375 21.1813 52.7975 20.7867 53.1175 20.488C53.4375 20.168 53.8322 20.008 54.3015 20.008C54.7922 20.008 55.1868 20.168 55.4855 20.488C55.8055 20.7867 55.9655 21.1813 55.9655 21.672V43.336C55.9655 43.8053 55.8055 44.2 55.4855 44.52C55.1868 44.84 54.7922 45 54.3015 45ZM75.5713 45C74.6326 45 73.8006 44.744 73.0753 44.232C72.3499 43.72 71.7846 43.0267 71.3793 42.152C70.9739 41.256 70.7713 40.232 70.7713 39.08V21.608C70.7713 21.1387 70.9206 20.7547 71.2193 20.456C71.5179 20.1573 71.9019 20.008 72.3713 20.008C72.8406 20.008 73.2246 20.1573 73.5233 20.456C73.8219 20.7547 73.9713 21.1387 73.9713 21.608V39.08C73.9713 39.8693 74.1206 40.52 74.4193 41.032C74.7179 41.544 75.1019 41.8 75.5713 41.8H76.3713C76.7979 41.8 77.1393 41.9493 77.3953 42.248C77.6726 42.5467 77.8113 42.9307 77.8113 43.4C77.8113 43.8693 77.6086 44.2533 77.2033 44.552C76.7979 44.8507 76.2753 45 75.6353 45H75.5713ZM82.957 45C82.4877 45 82.093 44.8507 81.773 44.552C81.4743 44.232 81.325 43.8373 81.325 43.368V29.128C81.325 28.6373 81.4743 28.2427 81.773 27.944C82.093 27.6453 82.4877 27.496 82.957 27.496C83.4477 27.496 83.8423 27.6453 84.141 27.944C84.4397 28.2427 84.589 28.6373 84.589 29.128V43.368C84.589 43.8373 84.4397 44.232 84.141 44.552C83.8423 44.8507 83.4477 45 82.957 45ZM82.957 24.648C82.381 24.648 81.8797 24.4453 81.453 24.04C81.0477 23.6133 80.845 23.112 80.845 22.536C80.845 21.96 81.0477 21.4693 81.453 21.064C81.8797 20.6373 82.381 20.424 82.957 20.424C83.533 20.424 84.0237 20.6373 84.429 21.064C84.8557 21.4693 85.069 21.96 85.069 22.536C85.069 23.112 84.8557 23.6133 84.429 24.04C84.0237 24.4453 83.533 24.648 82.957 24.648ZM97.0293 45.128C95.5359 45.128 94.1493 44.904 92.8693 44.456C91.6106 43.9867 90.6293 43.4 89.9253 42.696C89.6053 42.3547 89.4666 41.9707 89.5093 41.544C89.5733 41.096 89.7866 40.7333 90.1493 40.456C90.5759 40.1147 90.9919 39.976 91.3973 40.04C91.8239 40.0827 92.1866 40.264 92.4852 40.584C92.8479 40.9893 93.4239 41.3733 94.2133 41.736C95.0239 42.0773 95.9199 42.248 96.9013 42.248C98.1386 42.248 99.0773 42.0453 99.7173 41.64C100.379 41.2347 100.72 40.712 100.741 40.072C100.763 39.432 100.453 38.8773 99.8133 38.408C99.1946 37.9387 98.0533 37.5547 96.3893 37.256C94.2346 36.8293 92.6666 36.1893 91.6853 35.336C90.7253 34.4827 90.2453 33.4373 90.2453 32.2C90.2453 31.112 90.5653 30.216 91.2053 29.512C91.8453 28.7867 92.6666 28.2533 93.6693 27.912C94.6719 27.5493 95.7173 27.368 96.8053 27.368C98.2133 27.368 99.4613 27.592 100.549 28.04C101.637 28.488 102.501 29.1067 103.141 29.896C103.44 30.2373 103.579 30.6 103.557 30.984C103.536 31.3467 103.355 31.656 103.013 31.912C102.672 32.1467 102.267 32.2213 101.797 32.136C101.328 32.0507 100.933 31.8587 100.613 31.56C100.08 31.048 99.5039 30.696 98.8853 30.504C98.2666 30.312 97.5519 30.216 96.7413 30.216C95.8026 30.216 95.0026 30.376 94.3413 30.696C93.7013 31.016 93.3813 31.4853 93.3813 32.104C93.3813 32.488 93.4773 32.84 93.6693 33.16C93.8826 33.4587 94.2879 33.736 94.8853 33.992C95.4826 34.2267 96.3573 34.4613 97.5093 34.696C99.9199 35.1653 101.584 35.8373 102.501 36.712C103.44 37.5653 103.909 38.6213 103.909 39.88C103.909 40.8613 103.643 41.7467 103.109 42.536C102.597 43.3253 101.829 43.9547 100.805 44.424C99.8026 44.8933 98.5439 45.128 97.0293 45.128ZM114.404 45C113.338 45 112.378 44.7333 111.524 44.2C110.671 43.6453 109.999 42.8987 109.508 41.96C109.018 41.0213 108.772 39.9653 108.772 38.792V30.888H107.3C106.852 30.888 106.49 30.76 106.212 30.504C105.935 30.248 105.796 29.928 105.796 29.544C105.796 29.1173 105.935 28.776 106.212 28.52C106.49 28.264 106.852 28.136 107.3 28.136H108.772V23.528C108.772 23.0587 108.922 22.6747 109.22 22.376C109.519 22.0773 109.903 21.928 110.372 21.928C110.842 21.928 111.226 22.0773 111.524 22.376C111.823 22.6747 111.972 23.0587 111.972 23.528V28.136H114.692C115.14 28.136 115.503 28.264 115.78 28.52C116.058 28.776 116.196 29.1173 116.196 29.544C116.196 29.928 116.058 30.248 115.78 30.504C115.503 30.76 115.14 30.888 114.692 30.888H111.972V38.792C111.972 39.6453 112.207 40.36 112.676 40.936C113.146 41.512 113.722 41.8 114.404 41.8H115.492C115.876 41.8 116.196 41.9493 116.452 42.248C116.73 42.5467 116.868 42.9307 116.868 43.4C116.868 43.8693 116.687 44.2533 116.324 44.552C115.983 44.8507 115.535 45 114.98 45H114.404Z" fill="#353535" fill-opacity="0.89"/>
<path d="M130.025 45.488C129.556 45.488 129.161 45.328 128.841 45.008C128.521 44.688 128.361 44.2933 128.361 43.824V14.672C128.361 14.1813 128.521 13.776 128.841 13.456C129.161 13.136 129.556 12.976 130.025 12.976H134.889C135.38 12.976 135.775 13.136 136.073 13.456C136.393 13.776 136.553 14.1813 136.553 14.672C136.553 15.1413 136.393 15.536 136.073 15.856C135.775 16.1547 135.38 16.304 134.889 16.304H131.689V42.16H134.889C135.38 42.16 135.775 42.3093 136.073 42.608C136.393 42.928 136.553 43.3333 136.553 43.824C136.553 44.2933 136.393 44.688 136.073 45.008C135.775 45.328 135.38 45.488 134.889 45.488H130.025ZM140.371 38.512C139.773 38.512 139.251 38.2987 138.803 37.872C138.376 37.424 138.163 36.9013 138.163 36.304C138.163 35.6853 138.376 35.1627 138.803 34.736C139.251 34.288 139.773 34.064 140.371 34.064C140.989 34.064 141.512 34.288 141.939 34.736C142.365 35.1627 142.579 35.6853 142.579 36.304C142.579 36.9013 142.365 37.424 141.939 37.872C141.512 38.2987 140.989 38.512 140.371 38.512ZM147.996 38.512C147.398 38.512 146.876 38.2987 146.428 37.872C146.001 37.424 145.788 36.9013 145.788 36.304C145.788 35.6853 146.001 35.1627 146.428 34.736C146.876 34.288 147.398 34.064 147.996 34.064C148.614 34.064 149.137 34.288 149.564 34.736C149.99 35.1627 150.204 35.6853 150.204 36.304C150.204 36.9013 149.99 37.424 149.564 37.872C149.137 38.2987 148.614 38.512 147.996 38.512ZM155.621 38.512C155.023 38.512 154.501 38.2987 154.053 37.872C153.626 37.424 153.413 36.9013 153.413 36.304C153.413 35.6853 153.626 35.1627 154.053 34.736C154.501 34.288 155.023 34.064 155.621 34.064C156.239 34.064 156.762 34.288 157.189 34.736C157.615 35.1627 157.829 35.6853 157.829 36.304C157.829 36.9013 157.615 37.424 157.189 37.872C156.762 38.2987 156.239 38.512 155.621 38.512ZM161.102 45.488C160.632 45.488 160.238 45.328 159.918 45.008C159.598 44.688 159.438 44.2933 159.438 43.824C159.438 43.3333 159.598 42.928 159.918 42.608C160.238 42.3093 160.632 42.16 161.102 42.16H164.302V16.304H161.102C160.632 16.304 160.238 16.1547 159.918 15.856C159.598 15.536 159.438 15.1413 159.438 14.672C159.438 14.1813 159.598 13.776 159.918 13.456C160.238 13.136 160.632 12.976 161.102 12.976H165.966C166.456 12.976 166.851 13.136 167.15 13.456C167.47 13.776 167.63 14.1813 167.63 14.672V43.824C167.63 44.2933 167.47 44.688 167.15 45.008C166.851 45.328 166.456 45.488 165.966 45.488H161.102Z" fill="#FFACCC"/>
</svg>