<?xml version="1.0" encoding="utf-8"?>
<!-- Generator: Adobe Illustrator 24.1.2, SVG Export Plug-In . SVG Version: 6.00 Build 0)  -->
<svg version="1.1" id="Layer_1" xmlns="http://www.w3.org/2000/svg" xmlns:xlink="http://www.w3.org/1999/xlink" x="0px" y="0px"
	 viewBox="0 0 163.19 182.85" style="enable-background:new 0 0 163.19 182.85;" xml:space="preserve">
<style type="text/css">
	.st0{fill:#EC9000;}
	.st1{fill:#F8FBFC;}
	.st2{fill:#3E3F40;}
	.st3{fill:#1E1A1B;}
</style>
<g>
	<circle class="st0" cx="81.6" cy="92.72" r="81.6"/>
	<path class="st1" d="M49.1,154.3c-5.31-4.7-9.59-9.09-11.92-11.98c-5.61-6.98-9.86-15.35-11.41-18.6
		c-13.04-9.98-10.23-20.3-8.39-25.1c0.01-0.91,0.26-4.81,0.12-5.14l6.09,1.48c0.06-27.51,12.96-47.04,13.54-47.75l4.43-5.44
		l3.41,5.84c1.66-2.36,4.4-6.94,8.2-14.79c5.78-11.93,6.15-25.76,6.15-25.89L59.47,0l6.46,2.5c8.77,3.39,16.13,14.26,19.45,19.85
		c5.4-1.92,8.1-7.56,8.13-7.63l2.18-4.84c0,0,12.69,4.79,15.31,19.66c1.02-0.66,1.95-1.46,2.45-1.99l3.86-4.13l3.5,4.44
		c17.24,21.87,19.45,38.77,20.28,45.13c0.03,0.22,0.06,0.46,0.09,0.68l3.29,0.74c0.85,8.31,0.07,18.25-0.39,22.85
		c2.91,3.16,4.85,8.06,3.16,14.22c-1.6,5.84-6.28,10.06-8.8,11.97c-4.53,14.04-12.38,22.09-15,24.48
		c-16.13,31.15-47.76,34.1-49.11,34.22l-3.91,0.7C70.41,182.85,75.43,177.64,49.1,154.3z"/>
	<path class="st2" d="M73.59,179.46c0,0,31.57-2.6,46.95-33.37c0,0,10.19-8.19,15.19-25.18c0,0,6.8-4.29,8.51-10.54
		s-1.71-9.94-3.69-11.31c0,0,1.8-14.14,0.69-25.03c0,0-1.97,3.26-3,1.2c-1.03-2.06,0.15-20.58-20.31-46.54c0,0-4.97,5.31-9.94,4.89
		c0,0-2.23-15.26-9.69-19.46c0,0-4.8,10.63-15.51,11.4c0,0-9.04-17.44-19.24-21.38c0,0-0.33,15.32-6.83,28.73
		c-6.1,12.59-11.08,20.24-12.93,19.48c-2.7-1.11-4.2-3.69-4.2-3.69S25.28,66.23,26.91,96.14c0,0-2.14,2.06-7.29-0.86
		c0,0,1.54,3.51,0.34,5.23c-1.2,1.71-4.89,10.63,7.11,19.8l0.86,0.51c0,0,4.87,10.93,11.73,19.47S76.72,173.09,73.59,179.46z"/>
	<path class="st1" d="M46.28,97.23c0,0,11.76-18.56,33.04-3.5c0,0,15.35-17.59,33.72,2.53c0,0,11.66,15.94-4.18,27.99l-4.08,2.04
		l-2.14,1.65c0,0-0.97,23.81-20.31,24.29c-19.34,0.49-22.54-23.9-22.54-23.9l-3.3-2.33l-7.39-2.53l-7-17.2L46.28,97.23z"/>
	<path class="st2" d="M88.74,94.51c0,0,9.62-4.28,18.95,0C107.69,94.51,98.07,86.44,88.74,94.51z"/>
	<path class="st2" d="M51.98,95.38c0,0,9.62-4.28,18.95,0C70.93,95.38,61.31,87.32,51.98,95.38z"/>
	<path class="st2" d="M66.25,130.6c0,0,16.8,8.23,32.65,0C98.9,130.6,83.45,144.65,66.25,130.6z"/>
	<path class="st1" d="M37.08,107.68v-4.47c0,0-6.77-4.04-11.17-3.1c-5.83,1.24-11.1,17.51,11.17,21.12v-6.85
		c0,0-5.55,0.58-6.85-3.39c0,0,4.76-0.86,4.76-2.59c0,0-5.33-4.47-10.16-4.76C24.83,103.64,30.45,102.05,37.08,107.68z"/>
	<path class="st1" d="M126.65,106.36v-4.47c0,0,6.77-4.04,11.17-3.1c5.83,1.24,11.1,17.51-11.17,21.12v-6.85
		c0,0,5.55,0.58,6.85-3.39c0,0-4.76-0.86-4.76-2.59c0,0,5.33-4.47,10.16-4.76C138.9,102.32,133.28,100.74,126.65,106.36z"/>
	<path class="st3" d="M124.34,99.16c0,0-5.3-2.86-20.4-2.5c-15.09,0.37-15.81,3.68-18.06,6.07c-2.41,2.56-6.24,0.33-6.24,0.33
		c-13.75-12.28-42.56-3.1-42.56-3.1v3.24l2.37,0.63c0,0,3.57,8.18,4.74,12.71c1.17,4.53,2.95,8.04,8.44,9.73
		c5.5,1.7,18.3,1.19,21.78-6.85c2.79-6.45,4.24-11.67,8.45-11.67c4.14,0,6.26,8.76,7.69,11.67c0.92,1.88,3.85,5.98,6.53,6.32
		c2.67,0.35,16.89,1.65,20.46-1.81c3.58-3.46,7.49-19.48,7.49-19.48s2.47,0.62,2.75-2.47C128.05,98.89,124.34,99.16,124.34,99.16z
		 M118.02,117.35c-0.82,1.95-1.78,3.48-2.5,4.48c-0.6,0.85-1.52,1.4-2.55,1.53c-3.14,0.41-10.44,1.13-14.95-0.22
		c-5.88-1.77-8.41-18.07-8.41-18.07c2.36-4.95,18.07-5.46,26.98-4.62C125.49,101.3,119.53,113.74,118.02,117.35z"/>
	<path class="st1" d="M75.95,105.09c0,0-4.17,16.21-10,17.98c-5.24,1.59-10.01,0.73-13.22,0.32c-1.12-0.14-2.12-0.74-2.77-1.66
		c-0.7-1-1.63-2.49-2.41-4.37c-1.51-3.61-7.48-16.05,1.43-16.89C57.88,99.63,73.59,100.13,75.95,105.09z"/>
	<path class="st2" d="M100.89,109.27c0,3.17-1.02,5.74-2.28,5.74s-2.28-2.57-2.28-5.74c0-3.16,1.02-5.73,2.28-5.73
		c0.7,0,1.33,0.8,1.75,2.06c-0.51,0.11-0.9,0.57-0.9,1.11c0,0.63,0.52,1.14,1.15,1.14c0.07,0,0.14-0.01,0.2-0.02
		C100.87,108.29,100.89,108.77,100.89,109.27z"/>
	<path class="st2" d="M63.73,109.27c0,3.17-1.02,5.74-2.28,5.74s-2.28-2.57-2.28-5.74c0-3.16,1.02-5.73,2.28-5.73
		c0.7,0,1.33,0.8,1.75,2.06c-0.51,0.11-0.9,0.57-0.9,1.11c0,0.63,0.52,1.14,1.15,1.14c0.07,0,0.14-0.01,0.2-0.02
		C63.71,108.29,63.73,108.77,63.73,109.27z"/>
	<ellipse transform="matrix(0.866 -0.5 0.5 0.866 -50.0717 55.5811)" class="st2" cx="78.68" cy="121.23" rx="1.43" ry="2.68"/>
	<ellipse transform="matrix(0.5 -0.866 0.866 0.5 -61.8905 135.2537)" class="st2" cx="86.19" cy="121.23" rx="2.68" ry="1.43"/>
</g>
</svg>
